<?xml version="1.0" encoding="utf-8"?>
<!-- Generator: Adobe Illustrator 21.1.0, SVG Export Plug-In . SVG Version: 6.00 Build 0)  -->
<svg version="1.1" id="Layer_1" xmlns="http://www.w3.org/2000/svg" xmlns:xlink="http://www.w3.org/1999/xlink" x="0px" y="0px"
	 viewBox="0 0 1320 428" style="enable-background:new 0 0 1320 428;" xml:space="preserve">
<style type="text/css">
	.st0{fill:#00B4F0;}
	.st1{fill:#33383A;}
</style>
<g>
	<path class="st0" d="M1261.1,214c0-6.6-3.9-12.3-9.6-14.9c-0.2-0.1-0.4-0.3-0.7-0.4l-105.5-57.1c-2.8-1.6-5.9-2.4-9.1-2.4
		c-10.1,0-18.3,8.2-18.3,18.3c0,8.1,4,13.6,12.5,17.3l72.9,39.1l-72.8,39.1c-8.6,3.8-12.6,9.3-12.6,17.4c0,10.1,8.2,18.3,18.3,18.3
		c3.2,0,6.3-0.8,9.1-2.4l105.5-57.1c0.2-0.1,0.3-0.2,0.5-0.3C1257.1,226.5,1261.1,220.7,1261.1,214"/>
	<path class="st1" d="M372.3,215.5c0-43.3-34.9-78.5-78-78.5c-43.2,0-78.2,35.2-78.2,78.5c0,43.3,35.3,78.5,78.6,78.5
		c14.8,0,29.3-4.1,41.8-12l1.9-1.2l0.8,2c2.7,6.8,8.8,11.1,15.9,11.1c9.8,0,17.2-7.8,17.2-17.7V215.5z M294.9,253.5
		c-20.9,0-38-17-38-38c0-20.9,17-38,38-38c20.9,0,38,17,38,38C332.8,236.4,315.8,253.5,294.9,253.5"/>
	<path class="st1" d="M545.6,215.5c0-43.3-34.6-78.5-77.8-78.5c-43.2,0-78.1,35.2-78.1,78.5c0,43.3,35.3,78.5,78.6,78.5
		c14.8,0,29.3-4.1,41.8-12l1.9-1.2l0.8,2c2.7,6.8,8.6,11.1,15.8,11.1c9.7,0,17.1-7.9,17.1-17.7V215.5z M468.4,253.5
		c-20.9,0-38-17-38-38c0-20.9,17-38,38-38s38,17,38,38C506.4,236.4,489.3,253.5,468.4,253.5"/>
	<path class="st1" d="M685.7,283.1c2.8,7,9.5,11.5,17,11.5c10.1,0,18.4-8.2,18.4-18.3l0-180.2c0-10.1-8.7-18.3-18.8-18.3
		c-10.1,0-18.8,8.2-18.8,18.3v53.1l-1.4-1.1c-12.6-7.8-26-11.7-40.5-11.7c-43.6,0-79,35.5-79,79.1s35.5,79.1,79.2,79.1
		c14.9,0,29.5-4.2,42-12.1l1.3-0.8L685.7,283.1z M641.9,252.8c-20.6,0-37.3-16.8-37.3-37.3c0-20.6,16.8-37.3,37.3-37.3
		c20.6,0,37.3,16.8,37.3,37.3C679.2,236.1,662.5,252.8,641.9,252.8"/>
	<path class="st1" d="M954.4,160.2c-12.7-13.5-31.2-20.1-55.1-20.1h0c-0.8,0-19.8,1.1-32.7,8.3c-2.8-8.7-11-15-20.3-15
		c-11.5,0-21.1,9.3-21.3,20.8c0,0.2,0,76.5,0,122.1c0,11.8,9.6,21.3,21.4,21.3c11.8,0,21.4-9.6,21.4-21.4l0-65
		c0-13.5,9.9-28.1,31.8-28.1c21,0,30.4,15,30.4,25.7c0,10.6,0,67.6,0,67.6c0.1,11.7,9.7,21.2,21.3,21.2c11.8,0,21.4-9.6,21.4-21.4
		l0-64.3C972.5,210,973.9,181.1,954.4,160.2"/>
	<path class="st1" d="M192.5,134c-9.2,0-15.4,4.4-19.6,13.9l-36.9,79.4l-36.9-79.4C95,138.4,88.8,134,79.6,134
		c-11.4,0-20.7,9.3-20.7,20.7c0,3.6,0.9,7.1,2.7,10.2l57.1,122.7c4.6,8.8,10.6,9.5,17.4,9.5c6.8,0,12.8-0.7,17.4-9.5l57-122.5
		c1.8-3.1,2.7-6.7,2.7-10.3C213.2,143.3,203.9,134,192.5,134"/>
	<path class="st1" d="M773,134.3c-11.7,0-21,9.1-21.3,20.8c0,0.2,0,118.8,0,120c0,11.8,9.6,21.4,21.4,21.4
		c11.8,0,21.4-9.6,21.4-21.4c0-1.2,0-119.8,0-120C794,143.4,784.7,134.3,773,134.3"/>
	<path class="st1" d="M773,76c12.4,0,22.4,10,22.4,22.4c0,12.4-10,22.4-22.4,22.4c-12.4,0-22.4-10-22.4-22.4
		C750.5,86.1,760.6,76,773,76"/>
	<path class="st0" d="M1104.4,213.9c0-8-6.5-14.6-14.6-14.6h-3.4c0,0-0.1,0-0.1,0c-7.6,0-13.8-6.2-13.8-13.9l0-28.4v-45.5l0-0.8
		c0-8.6-3-16.4-8.1-22.6c-6.5-7.9-16.4-12.9-27.4-12.9l-27.3,0.1c-7.5,0-13.6,6.1-13.6,13.6c0,5.1,2.8,9.5,6.9,11.9c0,0,0,0,0,0
		c2,1.1,4.2,1.7,6.7,1.7h8.6c7.7,0,13.9,6.2,13.9,13.9v29.3v0v38.3c0,14.6,10.8,26.7,24.8,28.9v0c0,0,3.7,0.7,7.2,0.7v0.3v0.3
		c-3.5,0-7.2,0.7-7.2,0.7v0c-14,2.1-24.8,14.2-24.8,28.9v38.3v0v29.3c0,7.7-6.2,13.9-13.9,13.9h-8.6c-2.4,0-4.7,0.6-6.7,1.7
		c0,0,0,0,0,0c-4.1,2.3-6.9,6.8-6.9,11.9c0,7.5,6.1,13.6,13.6,13.6l27.3,0.1c11,0,20.9-5,27.4-12.9c5.1-6.1,8.1-14,8.1-22.6l0-0.8
		v-45.5l0-28.4c0-7.6,6.2-13.8,13.8-13.9c0,0,0.1,0,0.1,0h3.4c8,0,14.6-6.5,14.6-14.6C1104.4,214.1,1104.4,214,1104.4,213.9
		C1104.4,214,1104.4,213.9,1104.4,213.9z"/>
</g>
</svg>
